<mxfile host="app.diagrams.net" modified="2023-02-21T07:58:48.582Z" agent="5.0 (Windows NT 10.0; Win64; x64) AppleWebKit/537.36 (KHTML, like Gecko) Chrome/107.0.0.0 Safari/537.36" etag="mbKqUfiT2h8FpC36t9wZ" version="20.5.1" type="github">
  <diagram id="Rr_SapjKyaJtQ2wiv46B" name="第 1 页">
    <mxGraphModel dx="854" dy="451" grid="1" gridSize="10" guides="1" tooltips="1" connect="1" arrows="0" fold="1" page="1" pageScale="1" pageWidth="827" pageHeight="1169" math="0" shadow="0">
      <root>
        <mxCell id="0" />
        <mxCell id="1" parent="0" />
        <mxCell id="MB6k3B4G19l556soDYdY-13" style="edgeStyle=orthogonalEdgeStyle;rounded=0;orthogonalLoop=1;jettySize=auto;html=1;exitX=1;exitY=0.5;exitDx=0;exitDy=0;entryX=0;entryY=0.5;entryDx=0;entryDy=0;" edge="1" parent="1" source="MB6k3B4G19l556soDYdY-2" target="MB6k3B4G19l556soDYdY-3">
          <mxGeometry relative="1" as="geometry" />
        </mxCell>
        <mxCell id="MB6k3B4G19l556soDYdY-2" value="" style="rounded=0;whiteSpace=wrap;html=1;" vertex="1" parent="1">
          <mxGeometry x="120" y="80" width="200" height="80" as="geometry" />
        </mxCell>
        <mxCell id="MB6k3B4G19l556soDYdY-3" value="后一个区块" style="rounded=0;whiteSpace=wrap;html=1;" vertex="1" parent="1">
          <mxGeometry x="360" y="80" width="40" height="80" as="geometry" />
        </mxCell>
        <mxCell id="MB6k3B4G19l556soDYdY-5" value="版本" style="rounded=0;whiteSpace=wrap;html=1;" vertex="1" parent="1">
          <mxGeometry x="130" y="90" width="60" height="30" as="geometry" />
        </mxCell>
        <mxCell id="MB6k3B4G19l556soDYdY-6" value="时间戳" style="rounded=0;whiteSpace=wrap;html=1;" vertex="1" parent="1">
          <mxGeometry x="130" y="120" width="60" height="30" as="geometry" />
        </mxCell>
        <mxCell id="MB6k3B4G19l556soDYdY-7" value="前块哈希" style="rounded=0;whiteSpace=wrap;html=1;" vertex="1" parent="1">
          <mxGeometry x="190" y="90" width="60" height="30" as="geometry" />
        </mxCell>
        <mxCell id="MB6k3B4G19l556soDYdY-8" value="难度哈希&lt;span style=&quot;color: rgba(0, 0, 0, 0); font-family: monospace; font-size: 0px; text-align: start;&quot;&gt;%3CmxGraphModel%3E%3Croot%3E%3CmxCell%20id%3D%220%22%2F%3E%3CmxCell%20id%3D%221%22%20parent%3D%220%22%2F%3E%3CmxCell%20id%3D%222%22%20value%3D%22%E7%89%88%E6%9C%AC%22%20style%3D%22rounded%3D1%3BwhiteSpace%3Dwrap%3Bhtml%3D1%3B%22%20vertex%3D%221%22%20parent%3D%221%22%3E%3CmxGeometry%20x%3D%22130%22%20y%3D%2290%22%20width%3D%2260%22%20height%3D%2230%22%20as%3D%22geometry%22%2F%3E%3C%2FmxCell%3E%3C%2Froot%3E%3C%2FmxGraphModel%3E&lt;/span&gt;" style="rounded=0;whiteSpace=wrap;html=1;" vertex="1" parent="1">
          <mxGeometry x="190" y="120" width="60" height="30" as="geometry" />
        </mxCell>
        <mxCell id="MB6k3B4G19l556soDYdY-9" value="随机数" style="rounded=0;whiteSpace=wrap;html=1;" vertex="1" parent="1">
          <mxGeometry x="250" y="105" width="60" height="30" as="geometry" />
        </mxCell>
        <mxCell id="MB6k3B4G19l556soDYdY-12" style="edgeStyle=orthogonalEdgeStyle;rounded=0;orthogonalLoop=1;jettySize=auto;html=1;exitX=1;exitY=0.5;exitDx=0;exitDy=0;entryX=0;entryY=0.5;entryDx=0;entryDy=0;" edge="1" parent="1" source="MB6k3B4G19l556soDYdY-11" target="MB6k3B4G19l556soDYdY-2">
          <mxGeometry relative="1" as="geometry" />
        </mxCell>
        <mxCell id="MB6k3B4G19l556soDYdY-11" value="前一个区块" style="rounded=0;whiteSpace=wrap;html=1;" vertex="1" parent="1">
          <mxGeometry x="40" y="80" width="40" height="80" as="geometry" />
        </mxCell>
        <mxCell id="MB6k3B4G19l556soDYdY-15" value="Merkle树根" style="rounded=0;whiteSpace=wrap;html=1;" vertex="1" parent="1">
          <mxGeometry x="180" y="160" width="80" height="20" as="geometry" />
        </mxCell>
        <mxCell id="MB6k3B4G19l556soDYdY-32" style="edgeStyle=orthogonalEdgeStyle;rounded=0;orthogonalLoop=1;jettySize=auto;html=1;exitX=0.5;exitY=0;exitDx=0;exitDy=0;entryX=0.5;entryY=1;entryDx=0;entryDy=0;" edge="1" parent="1" source="MB6k3B4G19l556soDYdY-16" target="MB6k3B4G19l556soDYdY-23">
          <mxGeometry relative="1" as="geometry" />
        </mxCell>
        <mxCell id="MB6k3B4G19l556soDYdY-16" value="Tx0" style="rounded=0;whiteSpace=wrap;html=1;" vertex="1" parent="1">
          <mxGeometry x="100" y="300" width="30" height="20" as="geometry" />
        </mxCell>
        <mxCell id="MB6k3B4G19l556soDYdY-33" style="edgeStyle=orthogonalEdgeStyle;rounded=0;orthogonalLoop=1;jettySize=auto;html=1;exitX=0.5;exitY=0;exitDx=0;exitDy=0;entryX=0.5;entryY=1;entryDx=0;entryDy=0;" edge="1" parent="1" source="MB6k3B4G19l556soDYdY-17" target="MB6k3B4G19l556soDYdY-25">
          <mxGeometry relative="1" as="geometry" />
        </mxCell>
        <mxCell id="MB6k3B4G19l556soDYdY-17" value="Tx1" style="rounded=0;whiteSpace=wrap;html=1;" vertex="1" parent="1">
          <mxGeometry x="170" y="300" width="30" height="20" as="geometry" />
        </mxCell>
        <mxCell id="MB6k3B4G19l556soDYdY-34" style="edgeStyle=orthogonalEdgeStyle;rounded=0;orthogonalLoop=1;jettySize=auto;html=1;exitX=0.5;exitY=0;exitDx=0;exitDy=0;entryX=0.5;entryY=1;entryDx=0;entryDy=0;" edge="1" parent="1" source="MB6k3B4G19l556soDYdY-18" target="MB6k3B4G19l556soDYdY-26">
          <mxGeometry relative="1" as="geometry" />
        </mxCell>
        <mxCell id="MB6k3B4G19l556soDYdY-18" value="Tx2" style="rounded=0;whiteSpace=wrap;html=1;" vertex="1" parent="1">
          <mxGeometry x="240" y="300" width="30" height="20" as="geometry" />
        </mxCell>
        <mxCell id="MB6k3B4G19l556soDYdY-35" style="edgeStyle=orthogonalEdgeStyle;rounded=0;orthogonalLoop=1;jettySize=auto;html=1;exitX=0.5;exitY=0;exitDx=0;exitDy=0;entryX=0.5;entryY=1;entryDx=0;entryDy=0;" edge="1" parent="1" source="MB6k3B4G19l556soDYdY-19" target="MB6k3B4G19l556soDYdY-27">
          <mxGeometry relative="1" as="geometry" />
        </mxCell>
        <mxCell id="MB6k3B4G19l556soDYdY-19" value="Tx3" style="rounded=0;whiteSpace=wrap;html=1;" vertex="1" parent="1">
          <mxGeometry x="310" y="300" width="30" height="20" as="geometry" />
        </mxCell>
        <mxCell id="MB6k3B4G19l556soDYdY-48" style="orthogonalLoop=1;jettySize=auto;html=1;exitX=0.5;exitY=0;exitDx=0;exitDy=0;entryX=0.5;entryY=1;entryDx=0;entryDy=0;" edge="1" parent="1" source="MB6k3B4G19l556soDYdY-23" target="MB6k3B4G19l556soDYdY-37">
          <mxGeometry relative="1" as="geometry" />
        </mxCell>
        <mxCell id="MB6k3B4G19l556soDYdY-23" value="Hash 0" style="rounded=0;whiteSpace=wrap;html=1;" vertex="1" parent="1">
          <mxGeometry x="90" y="250" width="50" height="20" as="geometry" />
        </mxCell>
        <mxCell id="MB6k3B4G19l556soDYdY-50" style="edgeStyle=none;orthogonalLoop=1;jettySize=auto;html=1;exitX=0.5;exitY=0;exitDx=0;exitDy=0;entryX=0.5;entryY=1;entryDx=0;entryDy=0;" edge="1" parent="1" source="MB6k3B4G19l556soDYdY-25" target="MB6k3B4G19l556soDYdY-37">
          <mxGeometry relative="1" as="geometry" />
        </mxCell>
        <mxCell id="MB6k3B4G19l556soDYdY-25" value="Hash 1" style="rounded=0;whiteSpace=wrap;html=1;" vertex="1" parent="1">
          <mxGeometry x="160" y="250" width="50" height="20" as="geometry" />
        </mxCell>
        <mxCell id="MB6k3B4G19l556soDYdY-51" style="edgeStyle=none;orthogonalLoop=1;jettySize=auto;html=1;exitX=0.5;exitY=0;exitDx=0;exitDy=0;entryX=0.5;entryY=1;entryDx=0;entryDy=0;" edge="1" parent="1" source="MB6k3B4G19l556soDYdY-26" target="MB6k3B4G19l556soDYdY-39">
          <mxGeometry relative="1" as="geometry">
            <mxPoint x="270" y="230" as="targetPoint" />
          </mxGeometry>
        </mxCell>
        <mxCell id="MB6k3B4G19l556soDYdY-26" value="Hash 2" style="rounded=0;whiteSpace=wrap;html=1;" vertex="1" parent="1">
          <mxGeometry x="230" y="250" width="50" height="20" as="geometry" />
        </mxCell>
        <mxCell id="MB6k3B4G19l556soDYdY-52" style="edgeStyle=none;orthogonalLoop=1;jettySize=auto;html=1;exitX=0.5;exitY=0;exitDx=0;exitDy=0;startArrow=none;" edge="1" parent="1" source="MB6k3B4G19l556soDYdY-39">
          <mxGeometry relative="1" as="geometry">
            <mxPoint x="280" y="220" as="targetPoint" />
          </mxGeometry>
        </mxCell>
        <mxCell id="MB6k3B4G19l556soDYdY-60" style="edgeStyle=none;orthogonalLoop=1;jettySize=auto;html=1;exitX=0.5;exitY=0;exitDx=0;exitDy=0;entryX=0.5;entryY=1;entryDx=0;entryDy=0;strokeWidth=1;" edge="1" parent="1" source="MB6k3B4G19l556soDYdY-27" target="MB6k3B4G19l556soDYdY-39">
          <mxGeometry relative="1" as="geometry" />
        </mxCell>
        <mxCell id="MB6k3B4G19l556soDYdY-27" value="Hash 3" style="rounded=0;whiteSpace=wrap;html=1;" vertex="1" parent="1">
          <mxGeometry x="300" y="250" width="50" height="20" as="geometry" />
        </mxCell>
        <mxCell id="MB6k3B4G19l556soDYdY-53" style="edgeStyle=none;orthogonalLoop=1;jettySize=auto;html=1;exitX=0.5;exitY=0;exitDx=0;exitDy=0;entryX=0.5;entryY=1;entryDx=0;entryDy=0;" edge="1" parent="1" source="MB6k3B4G19l556soDYdY-37" target="MB6k3B4G19l556soDYdY-15">
          <mxGeometry relative="1" as="geometry" />
        </mxCell>
        <mxCell id="MB6k3B4G19l556soDYdY-37" value="Hash 01" style="rounded=0;whiteSpace=wrap;html=1;" vertex="1" parent="1">
          <mxGeometry x="110" y="200" width="80" height="20" as="geometry" />
        </mxCell>
        <mxCell id="MB6k3B4G19l556soDYdY-54" style="edgeStyle=none;orthogonalLoop=1;jettySize=auto;html=1;exitX=0.5;exitY=0;exitDx=0;exitDy=0;" edge="1" parent="1" source="MB6k3B4G19l556soDYdY-39">
          <mxGeometry relative="1" as="geometry">
            <mxPoint x="220" y="180" as="targetPoint" />
          </mxGeometry>
        </mxCell>
        <mxCell id="MB6k3B4G19l556soDYdY-55" style="edgeStyle=none;orthogonalLoop=1;jettySize=auto;html=1;exitX=0;exitY=0.5;exitDx=0;exitDy=0;" edge="1" parent="1" source="MB6k3B4G19l556soDYdY-23" target="MB6k3B4G19l556soDYdY-23">
          <mxGeometry relative="1" as="geometry" />
        </mxCell>
        <mxCell id="MB6k3B4G19l556soDYdY-39" value="Hash 23" style="rounded=0;whiteSpace=wrap;html=1;" vertex="1" parent="1">
          <mxGeometry x="250" y="200" width="80" height="20" as="geometry" />
        </mxCell>
      </root>
    </mxGraphModel>
  </diagram>
</mxfile>
